<?xml version="1.0" encoding="UTF-8" standalone="no"?>
<svg
   xmlns:dc="http://purl.org/dc/elements/1.1/"
   xmlns:cc="http://creativecommons.org/ns#"
   xmlns:rdf="http://www.w3.org/1999/02/22-rdf-syntax-ns#"
   xmlns:svg="http://www.w3.org/2000/svg"
   xmlns="http://www.w3.org/2000/svg"
   xmlns:sodipodi="http://sodipodi.sourceforge.net/DTD/sodipodi-0.dtd"
   xmlns:inkscape="http://www.inkscape.org/namespaces/inkscape"
   version="1.1"
   id="svg2"
   xml:space="preserve"
   width="156.42667"
   height="222.78667"
   viewBox="0 0 156.42667 222.78667"
   sodipodi:docname="Recep Tayyip Erdoğan Üniversitesi.eps"><metadata
     id="metadata8"><rdf:RDF><cc:Work
         rdf:about=""><dc:format>image/svg+xml</dc:format><dc:type
           rdf:resource="http://purl.org/dc/dcmitype/StillImage" /></cc:Work></rdf:RDF></metadata><defs
     id="defs6" /><sodipodi:namedview
     pagecolor="#ffffff"
     bordercolor="#666666"
     borderopacity="1"
     objecttolerance="10"
     gridtolerance="10"
     guidetolerance="10"
     inkscape:pageopacity="0"
     inkscape:pageshadow="2"
     inkscape:window-width="640"
     inkscape:window-height="480"
     id="namedview4" /><g
     id="g10"
     inkscape:groupmode="layer"
     inkscape:label="ink_ext_XXXXXX"
     transform="matrix(1.3333333,0,0,-1.3333333,0,222.78667)"><g
       id="g12"
       transform="scale(0.1)"><path
         d="m 639.906,1028.95 c 15.469,0.05 28.801,-0.53 39.094,-2.08 107.637,-16.23 122.234,-147.667 -7.57,-212.569 0,0 50.304,55.172 34.074,90.867 -11.25,24.75 -35.977,29.375 -92.434,28.426 13.34,26.027 23.313,56.672 26.68,92.396 z m -133.496,-6.28 c 12.942,0.68 25.84,1.43 38.508,2.17 -23.645,-25.895 -44.25,-57.953 -51.77,-95.309 l 1.145,0.032 12.117,93.107 z m -20.371,-1.01 6.672,0.31 -3.391,-6.68 -3.281,6.37 z M 168.992,997.543 c -12.844,18.517 -21.301,44.677 -15.578,67.007 4.356,17.01 14.215,26.79 23.188,33.88 0,0 -17.891,-71.17 228.707,-78.05 12.382,-0.34 25.41,-0.34 38.796,-0.1 l 0.422,-39.733 c -0.089,-12.676 0.215,-30.973 0.77,-52.098 -10,-0.156 -20.34,-0.285 -31.102,-0.359 -10.168,-0.067 -20.097,0.074 -29.765,0.41 -16.594,27.789 -37.071,55.938 -62.375,82.73 0,0 -4.883,-31.503 -6.356,-76.605 -76.281,11.367 -128.121,36.129 -146.707,62.918 v 0"
         style="fill:#2e3192;fill-opacity:1;fill-rule:nonzero;stroke:none"
         id="path14" /><path
         d="m 37.8477,344.129 v 0 c 0,-1.66 0.332,-2.238 1.4257,-2.699 3.3086,-1.032 8.0313,-1.489 11.9649,-1.489 6.3047,0 8.3515,0.598 11.1914,2.528 4.7187,3.293 9.2851,10.14 9.2851,22.383 0,21.168 -14.8046,27.269 -24.1093,27.269 -3.9297,0 -6.7657,-0.133 -8.3321,-0.57 -1.0937,-0.313 -1.4257,-0.91 -1.4257,-2.09 z m -18.5743,11.75 c 0,22.691 0,26.859 -0.3125,31.641 -0.3281,5.062 -1.5781,7.468 -6.7695,8.492 -1.2695,0.289 -3.94531,0.468 -6.15624,0.468 -1.73047,0 -2.67188,0.282 -2.67188,1.309 0,1.063 1.09766,1.359 3.46094,1.359 8.35158,0 18.26958,-0.449 21.57808,-0.449 5.3516,0 17.3165,0.449 22.2188,0.449 9.9102,0 20.457,-0.898 28.9727,-6.429 4.4101,-2.797 10.7148,-10.418 10.7148,-20.43 0,-11.019 -4.9063,-21.16 -20.8008,-33.379 14.0195,-16.73 24.8828,-29.98 34.1872,-39.219 8.801,-8.652 15.266,-9.679 17.629,-10.14 1.727,-0.321 3.145,-0.461 4.414,-0.461 1.254,0 1.891,-0.43 1.891,-1.168 0,-1.211 -1.106,-1.512 -3.004,-1.512 h -14.973 c -8.797,0 -12.7379,0.731 -16.8356,2.82 -6.7656,3.442 -12.7695,10.461 -21.582,21.93 -6.293,8.211 -13.5352,18.34 -15.586,20.578 -0.7968,0.903 -1.7382,1.051 -2.832,1.051 l -13.6992,0.293 c -0.7852,0 -1.2695,-0.293 -1.2695,-1.203 v -2.078 c 0,-13.871 0,-25.641 0.8007,-31.91 0.4688,-4.321 1.4141,-7.61 6.1368,-8.211 2.3671,-0.282 5.8359,-0.59 7.7148,-0.59 1.25,0 1.8906,-0.43 1.8906,-1.168 0,-1.051 -1.0937,-1.512 -3.1523,-1.512 -9.1445,0 -20.793,0.461 -23.1445,0.461 -3,0 -12.918,-0.461 -19.21099,-0.461 -2.05859,0 -3.15625,0.461 -3.15625,1.512 0,0.738 0.625,1.168 2.51953,1.168 2.34771,0 4.25781,0.308 5.66801,0.59 3.1601,0.601 3.9414,3.89 4.5664,8.211 0.7929,6.269 0.7929,18.039 0.7929,31.75 v 26.238 0"
         style="fill:#231f20;fill-opacity:1;fill-rule:nonzero;stroke:none"
         id="path16" /><path
         d="m 138.168,355.879 c 0,22.691 0,26.859 -0.309,31.641 -0.324,5.062 -1.574,7.468 -6.769,8.492 -1.27,0.289 -3.942,0.468 -6.145,0.468 -1.738,0 -2.675,0.282 -2.675,1.309 0,1.063 1.093,1.359 3.468,1.359 4.258,0 8.817,-0.16 12.746,-0.16 4.094,-0.136 7.731,-0.289 9.93,-0.289 5.043,0 36.383,0 39.379,0.153 2.977,0.296 5.512,0.578 6.758,0.878 0.804,0.168 1.742,0.61 2.535,0.61 0.781,0 0.926,-0.61 0.926,-1.352 0,-1.039 -0.778,-2.828 -1.242,-9.687 -0.161,-1.512 -0.477,-8.031 -0.797,-9.84 -0.157,-0.731 -0.469,-1.641 -1.578,-1.641 -1.09,0 -1.411,0.75 -1.411,2.09 0,1.059 -0.156,3.59 -0.949,5.371 -1.094,2.68 -2.683,4.469 -10.547,5.36 -2.687,0.3 -19.215,0.597 -22.379,0.597 -0.781,0 -1.082,-0.449 -1.082,-1.488 v -37.719 c 0,-1.062 0.141,-1.66 1.082,-1.66 3.481,0 21.582,0 25.204,0.301 3.796,0.297 6.16,0.758 7.566,2.258 1.105,1.16 1.734,1.922 2.516,1.922 0.64,0 1.109,-0.282 1.109,-1.18 0,-0.91 -0.625,-3.301 -1.266,-10.902 -0.152,-2.981 -0.625,-8.93 -0.625,-9.981 0,-1.187 0,-2.828 -1.422,-2.828 -1.086,0 -1.421,0.59 -1.421,1.309 -0.149,1.519 -0.149,3.449 -0.618,5.39 -0.8,3 -2.996,5.231 -8.82,5.809 -3.004,0.301 -18.59,0.48 -22.367,0.48 -0.797,0 -0.938,-0.617 -0.938,-1.519 v -11.789 c 0,-5.059 -0.172,-18.75 0,-23.102 0.301,-10.269 2.828,-12.508 18.891,-12.508 4.098,0 10.715,0 14.797,1.758 4.101,1.793 5.996,4.93 7.098,11.051 0.32,1.652 0.625,2.242 1.73,2.242 1.25,0 1.25,-1.191 1.25,-2.684 0,-3.449 -1.25,-13.589 -2.047,-16.558 -1.09,-3.871 -2.512,-3.871 -8.492,-3.871 -11.816,0 -20.484,0.301 -27.238,0.441 -6.786,0.301 -11.668,0.461 -16.387,0.461 -1.727,0 -5.207,0 -8.977,-0.16 -3.629,0 -7.718,-0.301 -10.875,-0.301 -2.039,0 -3.152,0.461 -3.152,1.512 0,0.738 0.633,1.168 2.523,1.168 2.356,0 4.258,0.308 5.668,0.59 3.161,0.601 3.942,3.89 4.567,8.211 0.785,6.269 0.785,18.039 0.785,31.75 v 26.238"
         style="fill:#231f20;fill-opacity:1;fill-rule:nonzero;stroke:none"
         id="path18" /><path
         d="m 240.078,300.582 c -15.433,12.816 -19.547,29.52 -19.547,43.988 0,10.141 3.317,27.719 18.438,40.86 11.34,9.84 26.301,15.808 49.777,15.808 9.754,0 15.574,-0.597 22.84,-1.508 5.977,-0.742 11.008,-2.082 15.734,-2.531 1.739,-0.148 2.364,-0.898 2.364,-1.777 0,-1.203 -0.469,-2.973 -0.793,-8.211 -0.301,-4.91 -0.157,-13.121 -0.469,-16.102 -0.156,-2.25 -0.469,-3.437 -1.883,-3.437 -1.25,0 -1.574,1.187 -1.574,3.277 -0.164,4.633 -2.195,9.84 -6.152,13.723 -5.196,5.25 -17.481,9.258 -31.958,9.258 -13.703,0 -22.675,-3.289 -29.613,-9.258 -11.512,-9.992 -14.492,-24.152 -14.492,-38.613 0,-35.5 28.5,-53.098 49.605,-53.098 14.016,0 22.512,1.5 28.821,8.348 2.687,2.851 4.726,7.183 5.363,9.851 0.469,2.399 0.781,2.981 2.051,2.981 1.094,0 1.406,-1.032 1.406,-2.231 0,-1.801 -1.875,-14.75 -3.457,-19.84 -0.793,-2.519 -1.418,-3.281 -4.094,-4.308 -6.289,-2.41 -18.269,-3.442 -28.343,-3.442 -21.59,0 -39.692,4.469 -54.024,16.262"
         style="fill:#231f20;fill-opacity:1;fill-rule:nonzero;stroke:none"
         id="path20" /><path
         d="m 363.695,355.879 c 0,22.691 0,26.859 -0.3,31.641 -0.325,5.062 -1.582,7.468 -6.77,8.492 -1.258,0.289 -3.945,0.468 -6.141,0.468 -1.73,0 -2.675,0.282 -2.675,1.309 0,1.063 1.082,1.359 3.457,1.359 4.257,0 8.816,-0.16 12.754,-0.16 4.089,-0.136 7.714,-0.289 9.929,-0.289 5.039,0 36.367,0 39.375,0.153 2.981,0.296 5.5,0.578 6.758,0.878 0.793,0.168 1.738,0.61 2.531,0.61 0.789,0 0.938,-0.61 0.938,-1.352 0,-1.039 -0.781,-2.828 -1.27,-9.687 -0.148,-1.512 -0.461,-8.031 -0.773,-9.84 -0.156,-0.731 -0.469,-1.641 -1.57,-1.641 -1.114,0 -1.426,0.75 -1.426,2.09 0,1.059 -0.157,3.59 -0.957,5.371 -1.086,2.68 -2.668,4.469 -10.528,5.36 -2.695,0.3 -19.23,0.597 -22.375,0.597 -0.8,0 -1.113,-0.449 -1.113,-1.488 v -37.719 c 0,-1.062 0.176,-1.66 1.113,-1.66 3.469,0 21.575,0 25.196,0.301 3.781,0.297 6.152,0.758 7.558,2.258 1.106,1.16 1.739,1.922 2.532,1.922 0.632,0 1.101,-0.282 1.101,-1.18 0,-0.91 -0.644,-3.301 -1.269,-10.902 -0.157,-2.981 -0.625,-8.93 -0.625,-9.981 0,-1.187 0,-2.828 -1.415,-2.828 -1.105,0 -1.425,0.59 -1.425,1.309 -0.157,1.519 -0.157,3.449 -0.625,5.39 -0.793,3 -3,5.231 -8.828,5.809 -2.989,0.301 -18.575,0.48 -22.356,0.48 -0.781,0 -0.957,-0.617 -0.957,-1.519 v -11.789 c 0,-5.059 -0.144,-18.75 0,-23.102 0.313,-10.269 2.844,-12.508 18.906,-12.508 4.094,0 10.715,0 14.817,1.758 4.09,1.793 5.976,4.93 7.09,11.051 0.312,1.652 0.625,2.242 1.726,2.242 1.25,0 1.25,-1.191 1.25,-2.684 0,-3.449 -1.25,-13.589 -2.039,-16.558 -1.113,-3.871 -2.519,-3.871 -8.516,-3.871 -11.808,0 -20.468,0.301 -27.257,0.441 -6.746,0.301 -11.641,0.461 -16.356,0.461 -1.738,0 -5.195,0 -8.984,-0.16 -3.613,0 -7.715,-0.301 -10.86,-0.301 -2.05,0 -3.156,0.461 -3.156,1.512 0,0.738 0.625,1.168 2.52,1.168 2.363,0 4.258,0.308 5.675,0.59 3.145,0.601 3.934,3.89 4.559,8.211 0.781,6.269 0.781,18.039 0.781,31.75 v 26.238"
         style="fill:#231f20;fill-opacity:1;fill-rule:nonzero;stroke:none"
         id="path22" /><path
         d="m 463.238,355.879 c 0,22.691 0,26.859 -0.304,31.641 -0.313,5.062 -1.582,7.468 -6.786,8.492 -1.261,0.289 -3.925,0.468 -6.144,0.468 -1.727,0 -2.664,0.282 -2.664,1.309 0,1.063 1.094,1.359 3.465,1.359 8.332,0 18.261,-0.449 22.675,-0.449 6.458,0 15.586,0.449 22.833,0.449 19.699,0 26.789,-6.269 29.289,-8.507 3.464,-3.121 7.871,-9.852 7.871,-17.743 0,-21.168 -16.368,-36.089 -38.743,-36.089 -0.789,0 -2.519,0 -3.3,0.152 -0.782,0.148 -1.895,0.289 -1.895,1.348 0,1.171 1.113,1.632 4.406,1.632 8.836,0 21.114,9.399 21.114,24.61 0,4.91 -0.469,14.91 -9.289,22.371 -5.664,4.918 -12.137,5.797 -15.743,5.797 -2.382,0 -4.726,-0.137 -6.14,-0.598 -0.801,-0.281 -1.27,-1.18 -1.27,-2.82 v -59.66 c 0,-13.711 0,-25.481 0.782,-31.911 0.488,-4.16 1.425,-7.449 6.14,-8.05 2.207,-0.282 5.676,-0.59 8.039,-0.59 1.739,0 2.528,-0.43 2.528,-1.168 0,-1.051 -1.278,-1.512 -3.008,-1.512 -10.391,0 -20.301,0.461 -24.403,0.461 -3.625,0 -13.554,-0.461 -19.843,-0.461 -2.043,0 -3.157,0.461 -3.157,1.512 0,0.738 0.645,1.168 2.532,1.168 2.351,0 4.238,0.308 5.664,0.59 3.152,0.601 3.933,3.89 4.558,8.211 0.793,6.269 0.793,18.039 0.793,31.75 v 26.238"
         style="fill:#231f20;fill-opacity:1;fill-rule:nonzero;stroke:none"
         id="path24" /><path
         d="m 634.586,390.789 -23.457,-0.59 c -9.152,-0.277 -12.93,-1.039 -15.285,-4.328 -1.563,-2.23 -2.371,-4.031 -2.676,-5.223 -0.301,-1.187 -0.77,-1.796 -1.738,-1.796 -1.094,0 -1.407,0.75 -1.407,2.418 0,2.371 2.989,15.929 3.301,17.109 0.469,1.961 0.957,2.859 1.895,2.859 1.261,0 2.824,-1.508 6.758,-1.808 4.582,-0.442 10.546,-0.731 15.761,-0.731 h 62.356 c 5.058,0 8.523,0.449 10.879,0.731 2.351,0.468 3.621,0.761 4.257,0.761 1.114,0 1.25,-0.89 1.25,-3.14 0,-3.121 -0.46,-13.41 -0.46,-17.289 -0.176,-1.481 -0.489,-2.403 -1.426,-2.403 -1.27,0 -1.571,0.77 -1.719,3 l -0.176,1.629 c -0.312,3.883 -4.57,8.063 -18.562,8.344 l -19.875,0.457 v -61.148 c 0,-13.711 0,-25.481 0.801,-31.911 0.48,-4.16 1.406,-7.449 6.144,-8.05 2.207,-0.282 5.672,-0.59 8.035,-0.59 1.711,0 2.512,-0.43 2.512,-1.168 0,-1.051 -1.262,-1.512 -2.981,-1.512 -10.41,0 -20.339,0.461 -24.734,0.461 -3.613,0 -13.555,-0.461 -19.824,-0.461 -2.051,0 -3.176,0.461 -3.176,1.512 0,0.738 0.645,1.168 2.52,1.168 2.375,0 4.269,0.308 5.664,0.59 3.144,0.601 4.093,3.89 4.57,8.211 0.793,6.269 0.793,18.039 0.793,31.75 v 61.148"
         style="fill:#231f20;fill-opacity:1;fill-rule:nonzero;stroke:none"
         id="path26" /><path
         d="m 754.438,332.789 v 0 c 0.792,0 0.957,0.449 0.792,0.902 l -14.179,36.821 c -0.168,0.597 -0.305,1.34 -0.774,1.34 -0.476,0 -0.789,-0.743 -0.937,-1.34 L 724.828,333.84 c -0.144,-0.602 0,-1.051 0.637,-1.051 z M 722.32,325.34 c -0.793,0 -1.125,-0.309 -1.425,-1.199 l -8.497,-21.321 c -1.574,-3.738 -2.382,-7.32 -2.382,-9.121 0,-2.66 1.425,-4.609 6.316,-4.609 h 2.363 c 1.875,0 2.364,-0.301 2.364,-1.168 0,-1.211 -0.938,-1.512 -2.676,-1.512 -5.047,0 -11.805,0.461 -16.707,0.461 -1.738,0 -10.391,-0.461 -18.555,-0.461 -2.07,0 -3.008,0.301 -3.008,1.512 0,0.867 0.633,1.168 1.883,1.168 1.406,0 3.625,0.14 4.875,0.308 7.266,0.883 10.234,5.942 13.399,13.422 l 39.531,93.66 c 1.894,4.321 2.832,5.95 4.402,5.95 1.418,0 2.363,-1.34 3.945,-4.782 3.79,-8.187 28.977,-69.039 39.063,-91.707 5.969,-13.421 10.547,-15.511 13.859,-16.261 2.344,-0.45 4.715,-0.59 6.59,-0.59 1.27,0 2.051,-0.149 2.051,-1.168 0,-1.211 -1.387,-1.512 -7.234,-1.512 -5.664,0 -17.168,0 -29.766,0.301 -2.844,0.16 -4.727,0.16 -4.727,1.211 0,0.867 0.614,1.168 2.215,1.308 1.106,0.321 2.199,1.661 1.418,3.442 L 759.02,324.27 c -0.325,0.761 -0.793,1.07 -1.575,1.07 H 722.32 v 0"
         style="fill:#231f20;fill-opacity:1;fill-rule:nonzero;stroke:none"
         id="path28" /><path
         d="m 838.383,325.031 c 0,8.051 -1.563,11.321 -3.621,15.668 -1.114,2.36 -22.207,35.18 -27.727,42.942 -3.926,5.519 -7.851,9.238 -10.847,10.879 -2.032,1.062 -4.739,1.96 -6.622,1.96 -1.261,0 -2.355,0.282 -2.355,1.309 0,0.91 1.094,1.359 2.988,1.359 2.832,0 14.641,-0.449 19.836,-0.449 3.32,0 9.766,0.449 16.856,0.449 1.589,0 2.363,-0.449 2.363,-1.359 0,-0.879 -1.106,-1.027 -3.469,-1.629 -1.406,-0.308 -2.187,-1.488 -2.187,-2.672 0,-1.207 0.781,-3 1.886,-5.066 2.196,-4.473 24.246,-40.422 26.766,-44.602 1.574,3.578 21.406,36.391 23.613,41.02 1.582,3.262 2.227,5.801 2.227,7.742 0,1.488 -0.645,3.117 -3.32,3.719 -1.395,0.308 -2.84,0.609 -2.84,1.488 0,1.063 0.8,1.359 2.695,1.359 5.184,0 10.215,-0.449 14.793,-0.449 3.469,0 13.859,0.449 16.848,0.449 1.746,0 2.82,-0.296 2.82,-1.199 0,-1.039 -1.25,-1.469 -2.969,-1.469 -1.59,0 -4.578,-0.628 -6.941,-1.808 -3.281,-1.492 -5.031,-3.281 -8.488,-7.32 -5.215,-5.954 -27.247,-40.993 -30.098,-47.411 -2.352,-5.371 -2.352,-9.98 -2.352,-14.91 v -12.242 c 0,-2.359 0,-8.629 0.469,-14.898 0.32,-4.321 1.727,-7.61 6.445,-8.211 2.215,-0.282 5.684,-0.59 7.891,-0.59 1.727,0 2.508,-0.43 2.508,-1.168 0,-1.051 -1.27,-1.512 -3.301,-1.512 -9.922,0 -19.844,0.461 -24.109,0.461 -3.926,0 -13.86,-0.461 -19.661,-0.461 -2.226,0 -3.464,0.301 -3.464,1.512 0,0.738 0.769,1.168 2.5,1.168 2.226,0 4.109,0.308 5.527,0.59 3.145,0.601 4.551,3.89 4.891,8.211 0.449,6.269 0.449,12.539 0.449,14.898 v 12.242"
         style="fill:#231f20;fill-opacity:1;fill-rule:nonzero;stroke:none"
         id="path30" /><path
         d="m 943.91,325.031 c 0,8.051 -1.582,11.321 -3.621,15.668 -1.105,2.36 -22.199,35.18 -27.715,42.942 -3.945,5.519 -7.883,9.238 -10.879,10.879 -2.031,1.062 -4.718,1.96 -6.613,1.96 -1.25,0 -2.363,0.282 -2.363,1.309 0,0.91 1.113,1.359 3,1.359 2.832,0 14.648,-0.449 19.832,-0.449 3.301,0 9.765,0.449 16.867,0.449 1.57,0 2.363,-0.449 2.363,-1.359 0,-0.879 -1.113,-1.027 -3.488,-1.629 -1.406,-0.308 -2.195,-1.488 -2.195,-2.672 0,-1.207 0.789,-3 1.894,-5.066 2.207,-4.473 24.266,-40.422 26.758,-44.602 1.602,3.578 21.453,36.391 23.641,41.02 1.582,3.262 2.207,5.801 2.207,7.742 0,1.488 -0.625,3.117 -3.309,3.719 -1.406,0.308 -2.824,0.609 -2.824,1.488 0,1.063 0.781,1.359 2.676,1.359 5.207,0 10.226,-0.449 14.797,-0.449 3.476,0 13.842,0.449 16.852,0.449 1.75,0 2.84,-0.296 2.84,-1.199 0,-1.039 -1.28,-1.469 -2.99,-1.469 -1.59,0 -4.56,-0.628 -6.95,-1.808 -3.29,-1.492 -5.038,-3.281 -8.495,-7.32 -5.195,-5.954 -27.226,-40.993 -30.086,-47.411 -2.363,-5.371 -2.363,-9.98 -2.363,-14.91 v -12.242 c 0,-2.359 0,-8.629 0.469,-14.898 0.332,-4.321 1.726,-7.61 6.465,-8.211 2.195,-0.282 5.683,-0.59 7.871,-0.59 1.738,0 2.519,-0.43 2.519,-1.168 0,-1.051 -1.261,-1.512 -3.293,-1.512 -9.929,0 -19.851,0.461 -24.109,0.461 -3.938,0 -13.867,-0.461 -19.68,-0.461 -2.207,0 -3.457,0.301 -3.457,1.512 0,0.738 0.762,1.168 2.52,1.168 2.207,0 4.082,0.308 5.508,0.59 3.144,0.601 4.562,3.89 4.882,8.211 0.469,6.269 0.469,12.539 0.469,14.898 v 12.242"
         style="fill:#231f20;fill-opacity:1;fill-rule:nonzero;stroke:none"
         id="path32" /><path
         d="m 1032.75,418.98 v 0 c 0,3.739 2.49,8.649 8.8,8.649 5.04,0 8.95,-3.149 8.95,-8.047 0,-4.91 -3.6,-8.953 -8.95,-8.953 -6.31,0 -8.8,4.621 -8.8,8.351 z m -0.97,-63.101 c 0,22.691 0,26.859 -0.3,31.641 -0.32,5.062 -1.9,7.609 -5.35,8.332 -1.75,0.449 -3.79,0.628 -5.68,0.628 -1.57,0 -2.53,0.282 -2.53,1.469 0,0.903 1.27,1.199 3.79,1.199 5.98,0 15.91,-0.449 20.48,-0.449 3.93,0 13.23,0.449 19.21,0.449 2.05,0 3.3,-0.296 3.3,-1.199 0,-1.187 -0.93,-1.469 -2.51,-1.469 -1.59,0 -2.83,-0.179 -4.74,-0.468 -4.24,-0.742 -5.5,-3.293 -5.82,-8.492 -0.31,-4.782 -0.31,-8.95 -0.31,-31.641 v -26.238 c 0,-14.45 0,-26.231 0.63,-32.629 0.47,-4.051 1.58,-6.731 6.31,-7.332 2.18,-0.282 5.65,-0.59 8.01,-0.59 1.73,0 2.53,-0.43 2.53,-1.168 0,-1.051 -1.26,-1.512 -2.99,-1.512 -10.39,0 -20.33,0.461 -24.56,0.461 -3.63,0 -13.56,-0.461 -19.86,-0.461 -2.04,0 -3.14,0.461 -3.14,1.512 0,0.738 0.63,1.168 2.52,1.168 2.35,0 4.24,0.308 5.66,0.59 3.15,0.601 4.1,3.129 4.58,7.48 0.77,6.25 0.77,18.031 0.77,32.481 v 26.238 0"
         style="fill:#231f20;fill-opacity:1;fill-rule:nonzero;stroke:none"
         id="path34" /><path
         d="m 1102.96,355.879 c 0,22.691 0,26.859 -0.3,31.641 -0.31,5.062 -1.57,7.468 -6.78,8.492 -1.26,0.289 -3.93,0.468 -6.14,0.468 -1.73,0 -2.66,0.282 -2.66,1.309 0,1.063 1.08,1.359 3.44,1.359 8.35,0 18.3,-0.449 22.68,-0.449 6.46,0 15.58,0.449 22.84,0.449 19.71,0 26.79,-6.269 29.31,-8.507 3.46,-3.121 7.86,-9.852 7.86,-17.743 0,-21.168 -16.39,-36.089 -38.75,-36.089 -0.78,0 -2.5,0 -3.28,0.152 -0.79,0.148 -1.91,0.289 -1.91,1.348 0,1.171 1.12,1.632 4.41,1.632 8.82,0 21.11,9.399 21.11,24.61 0,4.91 -0.48,14.91 -9.29,22.371 -5.68,4.918 -12.14,5.797 -15.75,5.797 -2.37,0 -4.73,-0.137 -6.15,-0.598 -0.78,-0.281 -1.26,-1.18 -1.26,-2.82 v -59.66 c 0,-13.711 0,-25.481 0.79,-31.911 0.47,-4.16 1.42,-7.449 6.14,-8.05 2.21,-0.282 5.69,-0.59 8.03,-0.59 1.74,0 2.52,-0.43 2.52,-1.168 0,-1.051 -1.25,-1.512 -3,-1.512 -10.38,0 -20.3,0.461 -24.39,0.461 -3.61,0 -13.56,-0.461 -19.85,-0.461 -2.06,0 -3.16,0.461 -3.16,1.512 0,0.738 0.63,1.168 2.53,1.168 2.36,0 4.26,0.308 5.68,0.59 3.16,0.601 3.92,3.89 4.56,8.211 0.77,6.269 0.77,18.039 0.77,31.75 v 26.238"
         style="fill:#231f20;fill-opacity:1;fill-rule:nonzero;stroke:none"
         id="path36" /><path
         d="m 15.6406,198.789 c 0,22.672 0,26.84 -0.3047,31.621 -0.3125,5.059 -1.5507,7.43 -6.66402,8.5 -1.23438,0.289 -3.8711,0.442 -6.05469,0.442 C 0.921875,239.352 0,239.648 0,240.699 c 0,1.031 1.08203,1.332 3.40625,1.332 4.17969,0 8.66795,-0.152 12.55075,-0.152 4.0196,-0.149 7.5938,-0.277 9.7657,-0.277 4.9492,0 35.7812,0 38.7304,0.128 2.9453,0.301 5.4258,0.579 6.6563,0.891 0.7812,0.16 1.7148,0.609 2.4883,0.609 0.7734,0 0.9296,-0.609 0.9296,-1.351 0,-1.039 -0.7812,-2.84 -1.246,-9.68 -0.1602,-1.508 -0.4571,-8.058 -0.7813,-9.859 -0.1406,-0.75 -0.4609,-1.629 -1.5312,-1.629 -1.0899,0 -1.4102,0.75 -1.4102,2.09 0,1.031 -0.1523,3.59 -0.9297,5.371 -1.082,2.68 -2.6328,4.469 -10.3672,5.359 -2.6523,0.289 -18.9179,0.598 -22.0078,0.598 -0.7812,0 -1.0781,-0.449 -1.0781,-1.488 v -37.719 c 0,-1.051 0.1484,-1.641 1.0781,-1.641 3.4102,0 21.2227,0 24.7852,0.289 3.7265,0.301 6.0468,0.75 7.4375,2.239 1.082,1.171 1.7148,1.941 2.4922,1.941 0.6093,0 1.0703,-0.309 1.0703,-1.219 0,-0.883 -0.6172,-3.25 -1.2383,-10.883 -0.1602,-2.968 -0.6094,-8.937 -0.6094,-9.988 0,-1.172 0,-2.828 -1.3945,-2.828 -1.0899,0 -1.3985,0.609 -1.3985,1.348 -0.164,1.48 -0.164,3.429 -0.6171,5.351 -0.7852,3 -2.9415,5.25 -8.6758,5.84 -2.9453,0.277 -18.2891,0.449 -22.0039,0.449 -0.7774,0 -0.9258,-0.621 -0.9258,-1.48 v -11.801 c 0,-5.059 -0.1719,-18.789 0,-23.117 0.2969,-10.301 2.7851,-12.512 18.5742,-12.512 4.0391,0 10.5352,0 14.582,1.789 4.0274,1.781 5.8828,4.903 6.9649,11.02 0.3047,1.652 0.6211,2.242 1.7109,2.242 1.2344,0 1.2344,-1.211 1.2344,-2.691 0,-3.438 -1.2344,-13.559 -2.0078,-16.54 -1.1016,-3.898 -2.4883,-3.898 -8.3789,-3.898 -11.6211,0 -20.1407,0.328 -26.7969,0.477 -6.6602,0.281 -11.4688,0.433 -16.1211,0.433 -1.6953,0 -5.1094,0 -8.8242,-0.152 -3.5664,0 -7.59377,-0.281 -10.69533,-0.281 -2.01172,0 -3.08984,0.433 -3.08984,1.48 0,0.742 0.60546,1.18 2.47265,1.18 2.32422,0 4.1836,0.32 5.56642,0.613 3.1172,0.578 3.8867,3.859 4.5,8.188 0.7734,6.269 0.7734,18.031 0.7734,31.769 v 26.25"
         style="fill:#231f20;fill-opacity:1;fill-rule:nonzero;stroke:none"
         id="path38" /><path
         d="m 179.719,187.012 v 0 c 0,-1.641 0.308,-2.231 1.398,-2.672 3.262,-1.07 7.906,-1.52 11.778,-1.52 6.199,0 8.21,0.59 11.007,2.551 4.649,3.277 9.125,10.149 9.125,22.348 0,21.172 -14.55,27.312 -23.691,27.312 -3.883,0 -6.664,-0.152 -8.219,-0.609 -1.09,-0.293 -1.398,-0.891 -1.398,-2.082 z m -18.274,11.777 c 0,22.672 0,26.84 -0.312,31.621 -0.309,5.059 -1.543,7.43 -6.676,8.5 -1.23,0.289 -3.855,0.442 -6.027,0.442 -1.707,0 -2.633,0.296 -2.633,1.347 0,1.031 1.09,1.332 3.402,1.332 8.211,0 17.981,-0.429 21.227,-0.429 5.273,0 17.039,0.429 21.859,0.429 9.762,0 20.121,-0.89 28.504,-6.41 4.344,-2.851 10.527,-10.422 10.527,-20.449 0,-11 -4.793,-21.16 -20.449,-33.371 13.785,-16.731 24.481,-29.981 33.629,-39.242 8.684,-8.649 15.031,-9.7 17.34,-10.129 1.699,-0.309 3.113,-0.461 4.336,-0.461 1.25,0 1.875,-0.438 1.875,-1.18 0,-1.199 -1.094,-1.48 -2.945,-1.48 h -14.719 c -8.684,0 -12.551,0.742 -16.582,2.812 -6.656,3.43 -12.551,10.438 -21.219,21.918 -6.211,8.223 -13.336,18.34 -15.348,20.602 -0.785,0.879 -1.703,1.019 -2.785,1.019 l -13.472,0.309 c -0.786,0 -1.258,-0.309 -1.258,-1.207 v -2.063 c 0,-13.898 0,-25.66 0.785,-31.929 0.473,-4.329 1.394,-7.61 6.039,-8.188 2.324,-0.293 5.742,-0.613 7.594,-0.613 1.246,0 1.871,-0.438 1.871,-1.18 0,-1.047 -1.09,-1.48 -3.113,-1.48 -8.989,0 -20.45,0.433 -22.766,0.433 -2.949,0 -12.719,-0.433 -18.906,-0.433 -2.024,0 -3.102,0.433 -3.102,1.48 0,0.742 0.625,1.18 2.481,1.18 2.32,0 4.179,0.32 5.582,0.613 3.093,0.578 3.867,3.859 4.484,8.188 0.777,6.269 0.777,18.031 0.777,31.769 v 26.25 0"
         style="fill:#231f20;fill-opacity:1;fill-rule:nonzero;stroke:none"
         id="path40" /><path
         d="m 345.66,182.379 v 0 c 0,-15.797 0.164,-27.27 0.32,-30.098 0.157,-3.75 0.469,-9.722 1.7,-11.351 2.031,-2.84 8.058,-5.969 20.304,-5.969 15.789,0 26.329,2.961 35.633,10.738 9.914,8.192 13.02,21.781 13.02,37.121 0,18.942 -8.203,31.18 -14.875,37.289 -14.258,13.121 -31.922,14.922 -44.012,14.922 -3.086,0 -8.82,-0.449 -10.07,-1.051 -1.387,-0.601 -1.856,-1.339 -1.856,-2.968 -0.164,-5.082 -0.164,-18.082 -0.164,-29.821 z m -19.367,16.41 c 0,22.672 0,26.84 -0.293,31.621 -0.32,5.059 -1.562,7.43 -6.68,8.5 -1.238,0.289 -3.867,0.442 -6.023,0.442 -1.711,0 -2.637,0.296 -2.637,1.347 0,1.031 1.074,1.332 3.399,1.332 8.211,0 17.976,-0.429 22.324,-0.429 4.805,0 14.551,0.429 23.867,0.429 19.344,0 45.223,0 62.117,-17.011 7.754,-7.731 15.031,-20.11 15.031,-37.891 0,-18.758 -8.214,-33.09 -16.894,-41.598 -7.121,-6.98 -23.242,-17.582 -51.895,-17.582 -5.586,0 -11.933,0.461 -17.824,0.883 -5.887,0.477 -11.308,0.91 -15.183,0.91 -1.7,0 -5.118,0 -8.84,-0.152 -3.555,0 -7.578,-0.281 -10.684,-0.281 -2.019,0 -3.094,0.433 -3.094,1.48 0,0.742 0.606,1.18 2.469,1.18 2.324,0 4.192,0.32 5.578,0.613 3.114,0.578 3.887,3.859 4.5,8.188 0.762,6.269 0.762,18.031 0.762,31.769 v 26.25 0"
         style="fill:#231f20;fill-opacity:1;fill-rule:nonzero;stroke:none"
         id="path42" /><path
         d="m 607.211,182.82 v 0 c 0,33.41 -20,54.129 -45.41,54.129 -17.801,0 -38.094,-9.519 -38.094,-46.679 0,-31.008 17.801,-55.598 47.559,-55.598 10.839,0 35.945,5.07 35.945,48.148 z m -104.891,2.828 c 0,25.5 17.5,58.481 63.973,58.481 38.586,0 62.617,-21.629 62.617,-55.777 0,-34.153 -24.793,-61.153 -64.16,-61.153 -44.473,0 -62.43,32.063 -62.43,58.449 v 0"
         style="fill:#231f20;fill-opacity:1;fill-rule:nonzero;stroke:none"
         id="path44" /><path
         d="m 737.66,266.332 v 0 l 5.11,3.867 c 1.093,0.91 1.562,1.063 2.019,1.063 0.93,0 1.856,-1.942 3.262,-3.422 5.41,-6.129 10.215,-6.559 14.258,-6.559 6.808,0 12.089,3.117 13.613,4.16 4.797,3.59 5.754,5.52 6.828,5.52 0.781,0 1.258,-0.582 1.258,-1.34 0,-2.242 -6.231,-8.781 -9.774,-11.039 -5.117,-3.273 -8.996,-5.062 -16.711,-5.062 -4.363,0 -10.878,1.789 -15.371,5.371 -2.304,1.781 -5.722,4.757 -5.722,5.961 0,0.878 0.773,1.199 1.23,1.48 z m 67.11,-127.043 c 0,-4.039 -0.165,-4.328 -2.032,-5.379 -10.066,-5.078 -25.234,-6.711 -37.343,-6.711 -37.957,0 -71.582,17.301 -71.582,58.449 0,23.891 12.863,40.571 26.964,48.774 14.871,8.648 28.672,9.707 41.68,9.707 10.672,0 24.316,-1.82 27.43,-2.399 3.254,-0.589 8.683,-1.5 12.246,-1.66 1.847,-0.129 2.16,-0.718 2.16,-1.781 0,-1.609 -1.086,-5.801 -1.086,-24.43 0,-2.398 -0.469,-3.148 -1.707,-3.148 -1.074,0 -1.379,0.75 -1.543,1.969 -0.469,3.41 -1.25,8.172 -5.273,12.34 -4.661,4.789 -17.043,11.66 -34.563,11.66 -8.516,0 -19.824,-0.61 -30.664,-9.25 -8.68,-7.02 -14.266,-18.2 -14.266,-36.551 0,-32.078 21.239,-56.07 53.926,-56.07 4.012,0 9.453,0 13.164,1.632 2.344,1.059 2.949,3.02 2.949,5.52 v 14.019 c 0,7.461 0,13.129 -0.136,17.61 -0.156,5.051 -1.563,7.461 -6.68,8.5 -1.23,0.289 -3.879,0.441 -6.047,0.441 -1.394,0 -2.312,0.289 -2.312,1.188 0,1.211 1.093,1.48 3.25,1.48 8.047,0 17.804,-0.418 22.461,-0.418 4.816,0 13.027,0.418 18.136,0.418 2.012,0 3.106,-0.269 3.106,-1.48 0,-0.899 -0.949,-1.188 -2.012,-1.188 -1.25,0 -2.324,-0.152 -4.199,-0.441 -4.18,-0.758 -5.734,-3.289 -5.891,-8.5 -0.136,-4.481 -0.136,-10.449 -0.136,-17.91 v -16.391 0"
         style="fill:#231f20;fill-opacity:1;fill-rule:nonzero;stroke:none"
         id="path46" /><path
         d="m 933.668,175.66 v 0 c 0.781,0 0.937,0.442 0.781,0.91 l -13.965,36.809 c -0.136,0.621 -0.293,1.363 -0.761,1.363 -0.469,0 -0.782,-0.742 -0.93,-1.363 l -14.246,-36.668 c -0.176,-0.609 0,-1.051 0.613,-1.051 z m -31.613,-7.441 c -0.782,0 -1.082,-0.297 -1.387,-1.199 l -8.379,-21.321 c -1.531,-3.738 -2.324,-7.32 -2.324,-9.09 0,-2.699 1.406,-4.64 6.211,-4.64 h 2.304 c 1.875,0 2.325,-0.289 2.325,-1.18 0,-1.199 -0.918,-1.48 -2.606,-1.48 -4.972,0 -11.64,0.433 -16.437,0.433 -1.699,0 -10.235,-0.433 -18.289,-0.433 -2.024,0 -2.93,0.281 -2.93,1.48 0,0.891 0.594,1.18 1.844,1.18 1.386,0 3.574,0.152 4.804,0.32 7.129,0.871 10.071,5.941 13.164,13.41 l 38.899,93.653 c 1.863,4.32 2.793,5.968 4.344,5.968 1.386,0 2.324,-1.351 3.879,-4.789 3.718,-8.191 28.496,-69.031 38.418,-91.699 5.906,-13.422 10.39,-15.512 13.632,-16.25 2.325,-0.461 4.649,-0.613 6.504,-0.613 1.239,0 2.02,-0.137 2.02,-1.18 0,-1.199 -1.395,-1.48 -7.129,-1.48 -5.586,0 -16.883,0 -29.277,0.281 -2.793,0.152 -4.657,0.152 -4.657,1.199 0,0.891 0.625,1.18 2.176,1.332 1.074,0.309 2.16,1.649 1.399,3.43 l -12.422,31.609 c -0.286,0.762 -0.743,1.059 -1.524,1.059 h -34.562 v 0"
         style="fill:#231f20;fill-opacity:1;fill-rule:nonzero;stroke:none"
         id="path48" /><path
         d="m 1060.88,149.602 c 0.31,-11.68 2.33,-15.52 5.42,-16.582 2.62,-0.899 5.56,-1.051 8.04,-1.051 1.72,0 2.66,-0.289 2.66,-1.18 0,-1.199 -1.41,-1.48 -3.59,-1.48 -10.06,0 -16.27,0.433 -19.2,0.433 -1.4,0 -8.67,-0.433 -16.74,-0.433 -2.01,0 -3.39,0.132 -3.39,1.48 0,0.891 0.92,1.18 2.48,1.18 2,0 4.81,0.152 6.96,0.761 4.02,1.18 4.65,5.5 4.8,18.481 l 1.41,88.289 c 0,2.988 0.44,5.059 2.02,5.059 1.69,0 3.09,-1.938 5.71,-4.618 1.87,-1.941 25.42,-26.242 48.03,-47.859 10.55,-10.152 31.46,-31.621 34.09,-34 h 0.77 l -1.55,66.938 c -0.15,9.109 -1.55,11.929 -5.26,13.421 -2.32,0.911 -6.05,0.911 -8.21,0.911 -1.87,0 -2.48,0.457 -2.48,1.347 0,1.18 1.71,1.332 4.04,1.332 8.07,0 15.48,-0.429 18.73,-0.429 1.71,0 7.6,0.429 15.18,0.429 2.02,0 3.57,-0.152 3.57,-1.332 0,-0.89 -0.92,-1.347 -2.79,-1.347 -1.55,0 -2.77,0 -4.65,-0.442 -4.33,-1.211 -5.58,-4.328 -5.72,-12.691 l -1.7,-94.098 c 0,-3.289 -0.63,-4.609 -2.03,-4.609 -1.7,0 -3.56,1.648 -5.26,3.277 -9.75,8.953 -29.6,28.473 -45.71,43.852 -16.88,16.089 -34.1,34.73 -36.88,37.57 h -0.46 l 1.71,-62.609"
         style="fill:#231f20;fill-opacity:1;fill-rule:nonzero;stroke:none"
         id="path50" /><path
         d="m 322.055,1011.23 c 0,0 -18.692,-120.574 5.976,-227.757 C 348.082,668.922 454.41,620.238 454.41,620.238 l -0.195,-168.34 17.058,-0.437 14.875,359.82 c 0,0 138.934,59.524 153.602,214.709 l 3.742,73.96 c 0,0 -154.894,-76.32 -153.398,-202.579 l 20.937,160.729 -21.711,-42.81 -46.113,89.46 1.32,-124.203 c -0.382,-57.328 7.129,-229.606 9.825,-259.082 0,0 -10.391,160.66 -132.297,289.765"
         style="fill:#1e803e;fill-opacity:1;fill-rule:nonzero;stroke:none"
         id="path52" /><path
         d="m 1015.36,579.012 c 0,0 -60.93,-35.211 -120.442,14.91 -59.492,50.098 -150.02,164.605 -219.922,189.367 -55.5,19.656 -145.488,5.582 -155.019,-90.691 0,0 23.171,40.402 91.503,32.457 37.227,-4.332 62.5,-26.856 170.438,-146.414 107.949,-119.571 212.609,-136.032 233.442,0.371"
         style="fill:#2e3192;fill-opacity:1;fill-rule:nonzero;stroke:none"
         id="path54" /><path
         d="m 1022.76,1667.33 c 0,0 -44.651,-100.22 -234.229,-72.78 -138.711,20.09 -367.902,91.24 -516.304,73.48 -158.774,-19 -203.8012,-183.71 -111.305,-251.08 0,0 -33.109,53.57 2.941,92.51 38.367,41.46 154.266,78.42 423.289,20.01 332.129,-72.11 480.168,-53.05 435.608,137.86"
         style="fill:#2e3192;fill-opacity:1;fill-rule:nonzero;stroke:none"
         id="path56" /><path
         d="m 59.3867,92.4219 v 0 c 0,1.8672 1.25,4.4687 4.4571,4.4687 2.496,0 4.4726,-1.5703 4.4726,-4.1601 0,-2.6992 -1.7695,-4.7813 -4.5703,-4.7813 -3.1094,0 -4.3594,2.4922 -4.3594,4.4727 z m -20.875,0 v 0 c 0,1.8672 1.2461,4.4687 4.461,4.4687 2.4921,0 4.4648,-1.5703 4.4648,-4.1601 0,-2.6992 -1.7695,-4.7813 -4.5664,-4.7813 -3.1133,0 -4.3594,2.4922 -4.3594,4.4727 z M 20.7539,49.8398 c 0,16.1993 0,19.1094 -0.207,22.4415 -0.211,3.5195 -1.0352,5.1796 -4.4688,5.9101 -0.8281,0.207 -2.5937,0.3203 -3.5312,0.3203 -0.4141,0 -0.8281,0.1992 -0.8281,0.6094 0,0.6289 0.5156,0.8398 1.664,0.8398 4.6719,0 11.0078,-0.3203 11.9453,-0.3203 0.9336,0 7.1602,0.3203 10.2735,0.3203 1.1406,0 1.664,-0.2109 1.664,-0.8398 0,-0.4102 -0.414,-0.6094 -0.832,-0.6094 -0.7305,0 -1.3438,-0.1133 -2.5938,-0.3203 -2.8085,-0.4219 -3.6328,-2.2812 -3.8437,-5.9101 -0.207,-3.3321 -0.207,-6.2422 -0.207,-22.4415 V 35.3086 c 0,-14.957 3.3164,-21.3984 7.789,-25.66016 5.086,-4.76953 9.7617,-5.69922 15.6797,-5.69922 6.332,0 12.5625,3 16.3008,7.48048 4.7773,5.9101 6.0234,14.7305 6.0234,25.4297 v 12.9804 c 0,16.1993 0,19.1094 -0.207,22.4415 -0.2109,3.5195 -1.0391,5.1796 -4.4609,5.9101 -0.836,0.207 -2.5977,0.3203 -3.5352,0.3203 -0.4141,0 -0.832,0.1992 -0.832,0.6094 0,0.6289 0.5234,0.8398 1.6679,0.8398 4.6719,0 10.3829,-0.3203 11.004,-0.3203 0.7265,0 5.6054,0.3203 8.7148,0.3203 1.1484,0 1.6641,-0.2109 1.6641,-0.8398 0,-0.4102 -0.4141,-0.6094 -0.8243,-0.6094 -0.7304,0 -1.3515,-0.1133 -2.5976,-0.3203 C 83.3672,77.5703 82.543,75.9102 82.3281,72.2813 82.1289,68.9492 82.1289,66.0391 82.1289,49.8398 V 38.7383 c 0,-11.2188 -1.25,-23.6875 -9.5547,-31.05861 C 65.0938,1.03906 57.3086,0 51.1758,0 47.6484,0 37.1641,0.410156 29.7891,7.37109 24.7031,12.25 20.7539,19.5195 20.7539,34.6914 v 15.1484 0"
         style="fill:#231f20;fill-opacity:1;fill-rule:nonzero;stroke:none"
         id="path58" /><path
         d="m 149.52,15.582 c 0.21,-8.52341 1.25,-11.22262 4.058,-12.05075 1.969,-0.51953 4.254,-0.63281 5.192,-0.63281 0.515,0 0.832,-0.19922 0.832,-0.61719 0,-0.62109 -0.625,-0.83203 -1.872,-0.83203 -5.917,0 -10.07,0.3125 -11.007,0.3125 -0.938,0 -5.297,-0.3125 -9.965,-0.3125 -1.039,0 -1.668,0.10156 -1.668,0.83203 0,0.41797 0.316,0.61719 0.832,0.61719 0.836,0 2.699,0.11328 4.258,0.63281 2.597,0.71875 3.117,3.73828 3.117,13.18755 l 0.101,59.5 c 0,4.0507 0.313,5.1914 1.141,5.1914 0.828,0 2.594,-2.2891 3.641,-3.3204 1.55,-1.7695 17.023,-18.4882 33.015,-35.621 10.282,-11 21.602,-23.6797 24.922,-27.1094 l -1.14,52.7617 c -0.098,6.75 -0.832,9.0273 -4.043,9.8594 -1.875,0.4179 -4.262,0.5312 -5.094,0.5312 -0.727,0 -0.828,0.2969 -0.828,0.7188 0,0.6211 0.828,0.7304 2.074,0.7304 4.672,0 9.656,-0.3203 10.801,-0.3203 1.136,0 4.57,0.3203 8.828,0.3203 1.14,0 1.863,-0.1093 1.863,-0.7304 0,-0.4219 -0.41,-0.7188 -1.137,-0.7188 -0.523,0 -1.25,0 -2.496,-0.3203 -3.425,-0.7305 -3.836,-3.0117 -3.836,-9.2422 L 210.898,8.10156 c 0,-6.86328 -0.207,-7.38281 -0.941,-7.38281 -0.824,0 -2.07,1.15234 -7.578,6.65234 C 201.238,8.41016 186.289,23.6719 175.277,35.5117 163.23,48.4922 151.5,61.582 148.18,65.3203 l 1.34,-49.7383"
         style="fill:#231f20;fill-opacity:1;fill-rule:nonzero;stroke:none"
         id="path60" /><path
         d="m 277.887,93.2617 v 0 c 0,2.2774 1.551,5.3867 5.293,5.3867 3.011,0 5.406,-1.9687 5.406,-5.0898 0,-3.1172 -2.191,-5.6094 -5.406,-5.6094 -3.742,0 -5.293,2.9102 -5.293,5.3125 z m 9.656,-61.6914 c 0,-9.9687 0,-18.1797 0.516,-22.53905 0.316,-3.01172 0.933,-5.29297 4.054,-5.71094 1.45,-0.21093 3.731,-0.42187 4.668,-0.42187 0.625,0 0.832,-0.3086 0.832,-0.61719 0,-0.51953 -0.519,-0.83203 -1.656,-0.83203 -5.719,0 -12.258,0.3125 -12.777,0.3125 -0.52,0 -7.063,-0.3125 -10.176,-0.3125 -1.145,0 -1.66,0.21094 -1.66,0.83203 0,0.30859 0.211,0.61719 0.836,0.61719 0.929,0 2.175,0.21094 3.113,0.42187 2.07,0.41797 2.594,2.69922 3.008,5.71094 0.515,4.35935 0.515,12.57035 0.515,22.53905 v 18.2695 c 0,16.1993 0,19.1094 -0.203,22.4415 -0.215,3.5195 -1.25,5.289 -3.531,5.8085 -1.141,0.3086 -2.488,0.4219 -3.223,0.4219 -0.418,0 -0.828,0.1992 -0.828,0.6094 0,0.6289 0.524,0.8398 1.66,0.8398 3.426,0 9.969,-0.3203 10.489,-0.3203 0.519,0 7.058,0.3203 10.175,0.3203 1.141,0 1.665,-0.2109 1.665,-0.8398 0,-0.4102 -0.415,-0.6094 -0.832,-0.6094 -0.731,0 -1.352,-0.1133 -2.594,-0.3203 -2.805,-0.5195 -3.633,-2.2812 -3.844,-5.9101 -0.207,-3.3321 -0.207,-6.2422 -0.207,-22.4415 v -18.2695 0"
         style="fill:#231f20;fill-opacity:1;fill-rule:nonzero;stroke:none"
         id="path62" /><path
         d="m 380.797,14.1211 c 6.023,13.918 19.941,50.1602 22.226,57.6289 0.516,1.5586 0.926,3.0195 0.926,3.9492 0,0.8321 -0.301,1.8711 -1.347,2.3906 -1.239,0.4219 -2.801,0.4219 -3.946,0.4219 -0.625,0 -1.14,0.0977 -1.14,0.6094 0,0.6289 0.625,0.8398 2.285,0.8398 4.148,0 8.933,-0.3203 10.176,-0.3203 0.625,0 5.086,0.3203 8.105,0.3203 1.141,0 1.766,-0.2109 1.766,-0.7304 0,-0.5196 -0.418,-0.7188 -1.25,-0.7188 -0.723,0 -3.008,0 -4.989,-1.25 -1.347,-0.9414 -2.902,-2.7031 -5.703,-9.7617 -1.144,-2.9102 -6.34,-15.3789 -11.633,-28.1406 C 389.938,24.1992 385.27,12.9805 382.875,7.89063 379.965,1.66016 379.547,0 378.512,0 377.27,0 376.754,1.44922 374.781,6.42969 L 349.332,70.0898 c -2.285,5.8204 -3.84,6.961 -7.48,8 -1.555,0.4219 -3.313,0.4219 -3.938,0.4219 -0.625,0 -0.828,0.2969 -0.828,0.7188 0,0.6211 1.035,0.7304 2.695,0.7304 4.981,0 10.907,-0.3203 12.149,-0.3203 1.035,0 5.711,0.3203 9.656,0.3203 1.875,0 2.805,-0.2109 2.805,-0.7304 0,-0.5196 -0.313,-0.7188 -1.036,-0.7188 -1.144,0 -3.019,-0.1133 -3.957,-0.5312 -1.14,-0.5196 -1.347,-1.3516 -1.347,-2.0703 0,-1.3516 1.25,-4.5704 2.812,-8.6211 l 19.934,-53.168"
         style="fill:#231f20;fill-opacity:1;fill-rule:nonzero;stroke:none"
         id="path64" /><path
         d="m 469.066,49.8398 c 0,16.1993 0,19.1094 -0.203,22.4415 -0.207,3.5195 -1.035,5.1796 -4.465,5.9101 -0.839,0.207 -2.597,0.3203 -3.523,0.3203 -0.422,0 -0.84,0.1992 -0.84,0.6094 0,0.6289 0.528,0.8398 1.668,0.8398 2.383,0 5.188,0 7.473,-0.1093 l 4.258,-0.211 c 0.722,0 21.386,0 23.777,0.1094 1.973,0.1016 3.633,0.3086 4.465,0.5195 0.515,0.1016 0.937,0.5196 1.453,0.5196 0.312,0 0.422,-0.418 0.422,-0.9375 0,-0.7305 -0.528,-1.9727 -0.832,-4.8828 -0.106,-1.0391 -0.313,-5.6094 -0.528,-6.8477 -0.097,-0.5195 -0.312,-1.1406 -0.722,-1.1406 -0.625,0 -0.828,0.5195 -0.828,1.3515 0,0.7188 -0.11,2.4883 -0.625,3.7266 -0.723,1.6719 -1.758,2.9102 -7.375,3.5312 -1.766,0.211 -13.086,0.3204 -14.219,0.3204 -0.418,0 -0.633,-0.3204 -0.633,-1.0391 V 46.2109 c 0,-0.7304 0.106,-1.039 0.633,-1.039 1.348,0 14.121,0 16.504,0.207 2.5,0.2109 3.957,0.4219 4.883,1.4531 0.722,0.8282 1.144,1.3477 1.562,1.3477 0.305,0 0.508,-0.2109 0.508,-0.8281 0,-0.6211 -0.508,-2.3907 -0.82,-5.8125 -0.215,-2.0782 -0.418,-5.9297 -0.418,-6.6602 0,-0.8203 0,-1.957 -0.735,-1.957 -0.508,0 -0.722,0.4179 -0.722,0.9297 0,1.0273 0,2.0781 -0.418,3.4297 -0.411,1.457 -1.34,3.207 -5.391,3.6406 -2.812,0.2969 -13.086,0.5078 -14.855,0.5078 -0.516,0 -0.731,-0.3086 -0.731,-0.7188 v -9.1406 c 0,-3.5312 -0.098,-15.5781 0,-17.7617 0.32,-7.16797 1.875,-8.51954 12.051,-8.51954 2.703,0 7.273,0 9.969,1.14063 2.707,1.15234 3.957,3.21875 4.679,7.48051 0.203,1.1406 0.41,1.5586 0.926,1.5586 0.625,0 0.625,-0.8282 0.625,-1.5586 0,-0.8282 -0.828,-7.89067 -1.348,-10.07036 -0.73,-2.69921 -1.562,-2.69921 -5.613,-2.69921 -7.785,0 -13.496,0.21093 -17.539,0.30859 -4.062,0.21094 -6.543,0.3125 -8.105,0.3125 -0.207,0 -1.973,0 -4.153,-0.10156 -2.078,0 -4.472,-0.21094 -6.023,-0.21094 -1.145,0 -1.66,0.21094 -1.66,0.83203 0,0.30859 0.203,0.61719 0.828,0.61719 0.937,0 2.179,0.21094 3.117,0.42187 2.07,0.41797 2.598,2.69922 3.008,5.71094 0.515,4.35935 0.515,12.57035 0.515,22.53905 v 18.2695"
         style="fill:#231f20;fill-opacity:1;fill-rule:nonzero;stroke:none"
         id="path66" /><path
         d="m 574.477,40.8086 v 0 c 0,-0.5195 0.214,-0.9375 0.722,-1.2383 1.563,-0.9492 6.34,-1.6719 10.91,-1.6719 2.489,0 5.399,0.3125 7.782,1.9727 3.632,2.4883 6.339,8.0977 6.339,15.9883 0,12.9922 -6.855,20.7695 -17.96,20.7695 -3.114,0 -5.926,-0.3086 -6.961,-0.6094 -0.52,-0.2187 -0.832,-0.6289 -0.832,-1.25 z m -8.309,9.0312 c 0,16.1993 0,19.1094 -0.207,22.4415 -0.215,3.5195 -1.035,5.1796 -4.461,5.9101 -0.832,0.207 -2.59,0.3203 -3.535,0.3203 -0.41,0 -0.82,0.1992 -0.82,0.6094 0,0.6289 0.515,0.8398 1.648,0.8398 4.68,0 11.223,-0.3203 11.738,-0.3203 1.145,0 9.035,0.3203 12.246,0.3203 6.555,0 13.508,-0.6289 19.016,-4.5703 2.586,-1.8711 7.156,-6.9609 7.156,-14.1211 0,-7.6875 -3.222,-15.3711 -12.558,-23.9882 8.515,-10.9102 15.566,-20.1524 21.601,-26.5899 5.606,-5.92187 10.071,-7.06249 12.668,-7.47265 1.973,-0.32031 3.426,-0.32031 4.051,-0.32031 0.508,0 0.93,-0.3086 0.93,-0.61719 0,-0.62109 -0.625,-0.83203 -2.493,-0.83203 h -7.371 c -5.812,0 -8.41,0.51953 -11.113,1.97266 -4.465,2.38671 -8.098,7.47652 -14.023,15.26952 -4.356,5.707 -9.239,12.668 -11.309,15.3672 -0.422,0.4102 -0.734,0.6328 -1.359,0.6328 l -12.774,0.1875 c -0.508,0 -0.722,-0.2969 -0.722,-0.8203 v -2.4883 c 0,-9.9687 0,-18.1797 0.519,-22.53905 0.313,-3.01172 0.938,-5.29297 4.051,-5.71094 1.457,-0.21093 3.73,-0.42187 4.68,-0.42187 0.613,0 0.82,-0.3086 0.82,-0.61719 0,-0.51953 -0.52,-0.83203 -1.652,-0.83203 -5.711,0 -12.266,0.3125 -12.782,0.3125 -0.097,0 -6.64,-0.3125 -9.765,-0.3125 -1.133,0 -1.653,0.21094 -1.653,0.83203 0,0.30859 0.215,0.61719 0.832,0.61719 0.938,0 2.176,0.21094 3.106,0.42187 2.09,0.41797 2.597,2.69922 3.015,5.71094 0.52,4.35935 0.52,12.57035 0.52,22.53905 v 18.2695 0"
         style="fill:#231f20;fill-opacity:1;fill-rule:nonzero;stroke:none"
         id="path68" /><path
         d="m 671.578,2.80078 c -1.457,0.73047 -1.555,1.14844 -1.555,3.94922 0,5.1914 0.422,9.3398 0.52,11 0.105,1.1406 0.312,1.6602 0.828,1.6602 0.625,0 0.734,-0.3086 0.734,-1.1407 0,-0.9297 0,-2.3906 0.301,-3.8398 1.563,-7.6797 8.418,-10.58986 15.371,-10.58986 9.973,0 14.856,7.16016 14.856,13.80856 0,7.1602 -3.008,11.3204 -11.945,18.6914 l -4.668,3.8516 c -11.016,9.0274 -13.504,15.457 -13.504,22.5274 0,11.1132 8.308,18.6914 21.504,18.6914 4.043,0 7.05,-0.418 9.648,-1.0391 1.973,-0.4102 2.801,-0.5195 3.633,-0.5195 0.84,0 1.043,-0.211 1.043,-0.7305 0,-0.5117 -0.418,-3.9414 -0.418,-11 0,-1.6523 -0.207,-2.3906 -0.723,-2.3906 -0.625,0 -0.734,0.5195 -0.832,1.3515 -0.105,1.25 -0.73,4.0469 -1.348,5.1993 -0.625,1.1289 -3.425,5.4882 -12.988,5.4882 -7.156,0 -12.762,-4.4609 -12.762,-12.039 0,-5.9219 2.696,-9.6602 12.657,-17.4414 L 694.848,46 c 12.246,-9.6602 15.156,-16.1016 15.156,-24.3984 0,-4.2618 -1.66,-12.15238 -8.828,-17.24222 C 696.715,1.23828 691.098,0 685.504,0 c -4.883,0 -9.66,0.71875 -13.926,2.80078"
         style="fill:#231f20;fill-opacity:1;fill-rule:nonzero;stroke:none"
         id="path70" /><path
         d="m 770.238,93.2617 v 0 c 0,2.2774 1.555,5.3867 5.305,5.3867 3.008,0 5.398,-1.9687 5.398,-5.0898 0,-3.1172 -2.187,-5.6094 -5.398,-5.6094 -3.75,0 -5.305,2.9102 -5.305,5.3125 z m 9.66,-61.6914 c 0,-9.9687 0,-18.1797 0.516,-22.53905 0.313,-3.01172 0.938,-5.29297 4.055,-5.71094 1.453,-0.21093 3.738,-0.42187 4.676,-0.42187 0.617,0 0.832,-0.3086 0.832,-0.61719 0,-0.51953 -0.528,-0.83203 -1.672,-0.83203 -5.711,0 -12.246,0.3125 -12.762,0.3125 -0.527,0 -7.07,-0.3125 -10.188,-0.3125 -1.14,0 -1.66,0.21094 -1.66,0.83203 0,0.30859 0.215,0.61719 0.84,0.61719 0.93,0 2.168,0.21094 3.117,0.42187 2.071,0.41797 2.586,2.69922 3.008,5.71094 0.516,4.35935 0.516,12.57035 0.516,22.53905 v 18.2695 c 0,16.1993 0,19.1094 -0.203,22.4415 -0.215,3.5195 -1.25,5.289 -3.535,5.8085 -1.145,0.3086 -2.493,0.4219 -3.223,0.4219 -0.41,0 -0.82,0.1992 -0.82,0.6094 0,0.6289 0.515,0.8398 1.648,0.8398 3.43,0 9.973,-0.3203 10.5,-0.3203 0.516,0 7.051,0.3203 10.164,0.3203 1.152,0 1.672,-0.2109 1.672,-0.8398 0,-0.4102 -0.422,-0.6094 -0.832,-0.6094 -0.731,0 -1.356,-0.1133 -2.598,-0.3203 -2.801,-0.5195 -3.633,-2.2812 -3.847,-5.9101 -0.204,-3.3321 -0.204,-6.2422 -0.204,-22.4415 v -18.2695 0"
         style="fill:#231f20;fill-opacity:1;fill-rule:nonzero;stroke:none"
         id="path72" /><path
         d="m 872.738,31.5703 c 0,-9.9687 0,-18.1797 0.52,-22.53905 0.312,-3.01172 0.937,-5.29297 4.051,-5.71094 1.457,-0.21093 3.742,-0.42187 4.679,-0.42187 0.625,0 0.828,-0.3086 0.828,-0.61719 0,-0.51953 -0.515,-0.83203 -1.668,-0.83203 -5.703,0 -12.246,0.3125 -12.773,0.3125 -0.52,0 -7.051,-0.3125 -10.168,-0.3125 -1.141,0 -1.66,0.21094 -1.66,0.83203 0,0.30859 0.195,0.61719 0.82,0.61719 0.938,0 2.188,0.21094 3.117,0.42187 2.079,0.41797 2.606,2.69922 3.016,5.71094 0.52,4.35935 0.52,12.57035 0.52,22.53905 v 43.918 l -15.364,-0.207 c -6.445,-0.1016 -8.933,-0.8321 -10.593,-3.3204 -1.145,-1.7617 -1.458,-2.4921 -1.77,-3.2226 -0.313,-0.8281 -0.625,-1.0391 -1.035,-1.0391 -0.313,0 -0.528,0.3125 -0.528,0.9414 0,1.0391 2.083,9.9688 2.297,10.8008 0.203,0.6172 0.614,1.9688 1.036,1.9688 0.722,0 1.765,-1.0391 4.558,-1.2383 3.02,-0.3203 6.965,-0.5313 8.203,-0.5313 h 38.946 c 3.32,0 5.714,0.211 7.375,0.5313 1.562,0.1992 2.488,0.5078 2.91,0.5078 0.515,0 0.515,-0.6211 0.515,-1.2383 0,-3.1211 -0.312,-10.2812 -0.312,-11.4297 0,-0.9297 -0.313,-1.3398 -0.723,-1.3398 -0.527,0 -0.73,0.3086 -0.828,1.7578 l -0.109,1.1406 c -0.313,3.1211 -2.801,5.5117 -12.774,5.711 l -13.086,0.207 v -43.918"
         style="fill:#231f20;fill-opacity:1;fill-rule:nonzero;stroke:none"
         id="path74" /><path
         d="m 956.137,49.8398 c 0,16.1993 0,19.1094 -0.203,22.4415 -0.215,3.5195 -1.047,5.1796 -4.473,5.9101 -0.832,0.207 -2.598,0.3203 -3.527,0.3203 -0.418,0 -0.829,0.1992 -0.829,0.6094 0,0.6289 0.516,0.8398 1.661,0.8398 2.382,0 5.183,0 7.468,-0.1093 l 4.258,-0.211 c 0.735,0 21.399,0 23.789,0.1094 1.965,0.1016 3.625,0.3086 4.465,0.5195 0.516,0.1016 0.926,0.5196 1.445,0.5196 0.321,0 0.418,-0.418 0.418,-0.9375 0,-0.7305 -0.515,-1.9727 -0.828,-4.8828 -0.109,-1.0391 -0.312,-5.6094 -0.519,-6.8477 -0.106,-0.5195 -0.313,-1.1406 -0.731,-1.1406 -0.625,0 -0.832,0.5195 -0.832,1.3515 0,0.7188 -0.097,2.4883 -0.625,3.7266 -0.722,1.6719 -1.765,2.9102 -7.371,3.5312 -1.758,0.211 -13.078,0.3204 -14.219,0.3204 -0.421,0 -0.625,-0.3204 -0.625,-1.0391 V 46.2109 c 0,-0.7304 0.098,-1.039 0.625,-1.039 1.348,0 14.121,0 16.504,0.207 2.5,0.2109 3.946,0.4219 4.883,1.4531 0.731,0.8282 1.141,1.3477 1.563,1.3477 0.312,0 0.515,-0.2109 0.515,-0.8281 0,-0.6211 -0.515,-2.3907 -0.828,-5.8125 -0.215,-2.0782 -0.422,-5.9297 -0.422,-6.6602 0,-0.8203 0,-1.957 -0.722,-1.957 -0.516,0 -0.731,0.4179 -0.731,0.9297 0,1.0273 0,2.0781 -0.41,3.4297 -0.41,1.457 -1.348,3.207 -5.402,3.6406 -2.801,0.2969 -13.086,0.5078 -14.852,0.5078 -0.519,0 -0.723,-0.3086 -0.723,-0.7188 v -9.1406 c 0,-3.5312 -0.097,-15.5781 0,-17.7617 0.313,-7.16797 1.864,-8.51954 12.039,-8.51954 2.707,0 7.278,0 9.973,1.14063 2.703,1.15234 3.945,3.21875 4.676,7.48051 0.207,1.1406 0.41,1.5586 0.93,1.5586 0.625,0 0.625,-0.8282 0.625,-1.5586 0,-0.8282 -0.821,-7.89067 -1.348,-10.07036 -0.723,-2.69921 -1.563,-2.69921 -5.606,-2.69921 -7.793,0 -13.496,0.21093 -17.55,0.30859 -4.051,0.21094 -6.543,0.3125 -8.106,0.3125 -0.203,0 -1.972,0 -4.148,-0.10156 -2.082,0 -4.465,-0.21094 -6.028,-0.21094 -1.14,0 -1.66,0.21094 -1.66,0.83203 0,0.30859 0.207,0.61719 0.832,0.61719 0.938,0 2.176,0.21094 3.114,0.42187 2.082,0.41797 2.597,2.69922 3.007,5.71094 0.528,4.35935 0.528,12.57035 0.528,22.53905 v 18.2695"
         style="fill:#231f20;fill-opacity:1;fill-rule:nonzero;stroke:none"
         id="path76" /><path
         d="m 1046.59,2.80078 c -1.45,0.73047 -1.56,1.14844 -1.56,3.94922 0,5.1914 0.41,9.3398 0.52,11 0.11,1.1406 0.31,1.6602 0.83,1.6602 0.63,0 0.72,-0.3086 0.72,-1.1407 0,-0.9297 0,-2.3906 0.32,-3.8398 1.56,-7.6797 8.41,-10.58986 15.37,-10.58986 9.97,0 14.85,7.16016 14.85,13.80856 0,7.1602 -3.02,11.3204 -11.94,18.6914 l -4.67,3.8516 c -11.02,9.0274 -13.51,15.457 -13.51,22.5274 0,11.1132 8.31,18.6914 21.5,18.6914 4.05,0 7.06,-0.418 9.66,-1.0391 1.97,-0.4102 2.8,-0.5195 3.64,-0.5195 0.82,0 1.03,-0.211 1.03,-0.7305 0,-0.5117 -0.42,-3.9414 -0.42,-11 0,-1.6523 -0.2,-2.3906 -0.72,-2.3906 -0.62,0 -0.73,0.5195 -0.84,1.3515 -0.1,1.25 -0.72,4.0469 -1.35,5.1993 -0.62,1.1289 -3.42,5.4882 -12.97,5.4882 -7.17,0 -12.78,-4.4609 -12.78,-12.039 0,-5.9219 2.71,-9.6602 12.67,-17.4414 L 1069.85,46 c 12.25,-9.6602 15.16,-16.1016 15.16,-24.3984 0,-4.2618 -1.66,-12.15238 -8.82,-17.24222 C 1071.72,1.23828 1066.11,0 1060.5,0 c -4.88,0 -9.66,0.71875 -13.91,2.80078"
         style="fill:#231f20;fill-opacity:1;fill-rule:nonzero;stroke:none"
         id="path78" /><path
         d="m 1145.25,93.2617 v 0 c 0,2.2774 1.56,5.3867 5.29,5.3867 3.02,0 5.4,-1.9687 5.4,-5.0898 0,-3.1172 -2.18,-5.6094 -5.4,-5.6094 -3.73,0 -5.29,2.9102 -5.29,5.3125 z m 9.66,-61.6914 c 0,-9.9687 0,-18.1797 0.51,-22.53905 0.32,-3.01172 0.93,-5.29297 4.06,-5.71094 1.45,-0.21093 3.74,-0.42187 4.68,-0.42187 0.61,0 0.82,-0.3086 0.82,-0.61719 0,-0.51953 -0.52,-0.83203 -1.65,-0.83203 -5.73,0 -12.27,0.3125 -12.79,0.3125 -0.52,0 -7.06,-0.3125 -10.17,-0.3125 -1.15,0 -1.66,0.21094 -1.66,0.83203 0,0.30859 0.21,0.61719 0.83,0.61719 0.93,0 2.17,0.21094 3.11,0.42187 2.08,0.41797 2.6,2.69922 3.01,5.71094 0.53,4.35935 0.53,12.57035 0.53,22.53905 v 18.2695 c 0,16.1993 0,19.1094 -0.22,22.4415 -0.2,3.5195 -1.24,5.289 -3.52,5.8085 -1.15,0.3086 -2.49,0.4219 -3.23,0.4219 -0.41,0 -0.83,0.1992 -0.83,0.6094 0,0.6289 0.53,0.8398 1.67,0.8398 3.42,0 9.96,-0.3203 10.48,-0.3203 0.52,0 7.06,0.3203 10.18,0.3203 1.14,0 1.66,-0.2109 1.66,-0.8398 0,-0.4102 -0.41,-0.6094 -0.82,-0.6094 -0.73,0 -1.35,-0.1133 -2.6,-0.3203 -2.8,-0.5195 -3.63,-2.2812 -3.85,-5.9101 -0.2,-3.3321 -0.2,-6.2422 -0.2,-22.4415 v -18.2695 0"
         style="fill:#231f20;fill-opacity:1;fill-rule:nonzero;stroke:none"
         id="path80" /><path
         d="m 1023.84,1250.05 c 0,0 -44.645,-100.22 -234.227,-72.77 -138.711,20.09 -367.898,91.24 -516.308,73.48 -158.778,-19 -203.7972,-183.72 -111.297,-251.092 0,0 -33.117,53.572 2.937,92.522 38.379,41.46 154.258,78.41 423.293,20.01 332.129,-72.11 480.162,-53.06 435.602,137.85"
         style="fill:#2e3192;fill-opacity:1;fill-rule:nonzero;stroke:none"
         id="path82" /><path
         d="m 1022.76,1457.87 c 0,0 -44.651,-100.22 -234.229,-72.77 -138.711,20.09 -367.902,91.23 -516.304,73.47 -158.786,-18.99 -201.1918,-182.05 -108.696,-249.43 0,0 -35.726,51.92 0.332,90.86 38.379,41.46 154.266,78.42 423.289,20.02 332.129,-72.11 480.168,-53.06 435.608,137.85"
         style="fill:#1e803e;fill-opacity:1;fill-rule:nonzero;stroke:none"
         id="path84" /></g></g></svg>
